# xmcd CD database file
#
# Track frame offsets:
#	187
#	24042
#	53757
#	82220
#	113972
#	133100
#	159357
#	178732
#	215762
#	244335
#
# Disc length: 3534 seconds
#
# Revision: 0
# Processed by: cddbd v1.5.1PL0 Copyright (c) Steve Scherf et al.
# Submitted via: CDex 1.51
#
DISCID=890dcc0a
DTITLE=Wes Montgomery - Portrait of Wes
DYEAR=1900
DGENRE=Jazz
TTITLE0=Freddie The Freeloader
TTITLE1=Lolita
TTITLE2=Blues Riff
TTITLE3=Dangerous
TTITLE4=Yesterday's Child
TTITLE5=Moanin'
TTITLE6=Blues Riff(take 7)
TTITLE7=Blues Riff(take 8)
TTITLE8=Moanin'(take 7)
TTITLE9=Moanin'(take 10)
EXTD=
EXTT0=
EXTT1=
EXTT2=
EXTT3=
EXTT4=
EXTT5=
EXTT6=
EXTT7=
EXTT8=
EXTT9=
PLAYORDER=
